HIERARCHY
ROOT Hips
{
	OFFSET 0.000000 97.167313 0.000000
	CHANNELS 6 Xposition Yposition Zposition Xrotation Yrotation Zrotation
	JOINT Spine
	{
		OFFSET 0.000000 13.784798 0.064400
		CHANNELS 3 Xrotation Yrotation Zrotation
		JOINT Spine1
		{
			OFFSET 0.000000 12.037903 0.404700
			CHANNELS 3 Xrotation Yrotation Zrotation
			JOINT Spine2
			{
				OFFSET 0.000000 17.795601 0.420200
				CHANNELS 3 Xrotation Yrotation Zrotation
				JOINT Neck
				{
					OFFSET 0.000000 39.131302 11.954600
					CHANNELS 3 Xrotation Yrotation Zrotation
					JOINT Head
					{
						OFFSET 0.000000 14.456192 15.627699
						CHANNELS 3 Xrotation Yrotation Zrotation
						JOINT HeadTop_End
						{
							OFFSET 0.000000 15.703506 7.603401
							CHANNELS 3 Xrotation Yrotation Zrotation
							End Site
							{
								OFFSET 0.000000 17.447403 0.000000
							}
						}
					}
				}
				JOINT LeftShoulder
				{
					OFFSET 17.399500 24.608795 1.168800
					CHANNELS 3 Xrotation Yrotation Zrotation
					JOINT LeftArm
					{
						OFFSET 18.980635 5.765305 1.818600
						CHANNELS 3 Xrotation Yrotation Zrotation
						JOINT LeftForeArm
						{
							OFFSET 49.290169 0.000000 0.000000
							CHANNELS 3 Xrotation Yrotation Zrotation
							JOINT LeftHand
							{
								OFFSET 31.562012 0.000000 0.000000
								CHANNELS 3 Xrotation Yrotation Zrotation
								JOINT LeftHandThumb1
								{
									OFFSET 6.133995 -4.388519 7.076070
									CHANNELS 3 Xrotation Yrotation Zrotation
									JOINT LeftHandThumb2
									{
										OFFSET 6.037666 -3.485840 3.485847
										CHANNELS 3 Xrotation Yrotation Zrotation
										JOINT LeftHandThumb3
										{
											OFFSET 6.496506 -3.750763 3.750761
											CHANNELS 3 Xrotation Yrotation Zrotation
											JOINT LeftHandThumb4
											{
												OFFSET 5.616882 -3.242905 3.242910
												CHANNELS 3 Xrotation Yrotation Zrotation
												End Site
												{
													OFFSET -1.254608 7.132141 0.375429
												}
											}
										}
									}
								}
								JOINT LeftHandPinky1
								{
									OFFSET 18.920792 -0.453171 -11.426712
									CHANNELS 3 Xrotation Yrotation Zrotation
									JOINT LeftHandPinky2
									{
										OFFSET 4.919586 0.000000 0.000000
										CHANNELS 3 Xrotation Yrotation Zrotation
										JOINT LeftHandPinky3
										{
											OFFSET 5.233047 0.000000 0.000000
											CHANNELS 3 Xrotation Yrotation Zrotation
											JOINT LeftHandPinky4
											{
												OFFSET 5.571716 0.000000 0.000000
												CHANNELS 3 Xrotation Yrotation Zrotation
												End Site
												{
													OFFSET -3.459808 4.342407 -0.466164
												}
											}
										}
									}
								}
								JOINT LeftHandRing1
								{
									OFFSET 22.726120 -0.094986 -6.500475
									CHANNELS 3 Xrotation Yrotation Zrotation
									JOINT LeftHandRing2
									{
										OFFSET 6.408615 0.000000 0.000000
										CHANNELS 3 Xrotation Yrotation Zrotation
										JOINT LeftHandRing3
										{
											OFFSET 6.150223 0.000000 0.000000
											CHANNELS 3 Xrotation Yrotation Zrotation
											JOINT LeftHandRing4
											{
												OFFSET 6.145386 0.000000 0.000000
												CHANNELS 3 Xrotation Yrotation Zrotation
												End Site
												{
													OFFSET -3.671402 4.923981 -0.202372
												}
											}
										}
									}
								}
								JOINT LeftHandMiddle1
								{
									OFFSET 23.373947 0.000000 0.000001
									CHANNELS 3 Xrotation Yrotation Zrotation
									JOINT LeftHandMiddle2
									{
										OFFSET 6.996567 0.000000 0.000000
										CHANNELS 3 Xrotation Yrotation Zrotation
										JOINT LeftHandMiddle3
										{
											OFFSET 7.015945 0.000000 0.000000
											CHANNELS 3 Xrotation Yrotation Zrotation
											JOINT LeftHandMiddle4
											{
												OFFSET 7.721573 0.000000 0.000000
												CHANNELS 3 Xrotation Yrotation Zrotation
												End Site
												{
													OFFSET -4.651108 6.158463 0.251582
												}
											}
										}
									}
								}
								JOINT LeftHandIndex1
								{
									OFFSET 21.310577 -0.490082 6.209344
									CHANNELS 3 Xrotation Yrotation Zrotation
									JOINT LeftHandIndex2
									{
										OFFSET 7.536453 0.000000 0.000000
										CHANNELS 3 Xrotation Yrotation Zrotation
										JOINT LeftHandIndex3
										{
											OFFSET 7.512344 0.000000 0.000000
											CHANNELS 3 Xrotation Yrotation Zrotation
											JOINT LeftHandIndex4
											{
												OFFSET 10.212402 0.000000 0.000001
												CHANNELS 3 Xrotation Yrotation Zrotation
												End Site
												{
													OFFSET -5.180801 8.690506 1.388433
												}
											}
										}
									}
								}
							}
						}
					}
				}
				JOINT RightShoulder
				{
					OFFSET -17.399500 24.608795 1.168800
					CHANNELS 3 Xrotation Yrotation Zrotation
					JOINT RightArm
					{
						OFFSET -18.980635 5.765305 1.818600
						CHANNELS 3 Xrotation Yrotation Zrotation
						JOINT RightForeArm
						{
							OFFSET -49.290169 0.000000 0.000000
							CHANNELS 3 Xrotation Yrotation Zrotation
							JOINT RightHand
							{
								OFFSET -31.562012 0.000000 0.000000
								CHANNELS 3 Xrotation Yrotation Zrotation
								JOINT RightHandThumb1
								{
									OFFSET -6.133995 -4.388519 7.076070
									CHANNELS 3 Xrotation Yrotation Zrotation
									JOINT RightHandThumb2
									{
										OFFSET -6.037666 -3.485840 3.485847
										CHANNELS 3 Xrotation Yrotation Zrotation
										JOINT RightHandThumb3
										{
											OFFSET -6.496506 -3.750763 3.750761
											CHANNELS 3 Xrotation Yrotation Zrotation
											JOINT RightHandThumb4
											{
												OFFSET -5.616882 -3.242905 3.242910
												CHANNELS 3 Xrotation Yrotation Zrotation
												End Site
												{
													OFFSET 1.254608 7.132141 0.375429
												}
											}
										}
									}
								}
								JOINT RightHandIndex1
								{
									OFFSET -21.310577 -0.490082 6.209344
									CHANNELS 3 Xrotation Yrotation Zrotation
									JOINT RightHandIndex2
									{
										OFFSET -7.536453 0.000000 0.000000
										CHANNELS 3 Xrotation Yrotation Zrotation
										JOINT RightHandIndex3
										{
											OFFSET -7.512344 0.000000 0.000000
											CHANNELS 3 Xrotation Yrotation Zrotation
											JOINT RightHandIndex4
											{
												OFFSET -10.212402 0.000000 0.000001
												CHANNELS 3 Xrotation Yrotation Zrotation
												End Site
												{
													OFFSET 5.180801 8.690506 1.388433
												}
											}
										}
									}
								}
								JOINT RightHandMiddle1
								{
									OFFSET -23.373947 0.000000 0.000001
									CHANNELS 3 Xrotation Yrotation Zrotation
									JOINT RightHandMiddle2
									{
										OFFSET -6.996567 0.000000 0.000000
										CHANNELS 3 Xrotation Yrotation Zrotation
										JOINT RightHandMiddle3
										{
											OFFSET -7.015945 0.000000 0.000000
											CHANNELS 3 Xrotation Yrotation Zrotation
											JOINT RightHandMiddle4
											{
												OFFSET -7.721573 0.000000 0.000000
												CHANNELS 3 Xrotation Yrotation Zrotation
												End Site
												{
													OFFSET 4.651108 6.158463 0.251582
												}
											}
										}
									}
								}
								JOINT RightHandRing1
								{
									OFFSET -22.726120 -0.094986 -6.500475
									CHANNELS 3 Xrotation Yrotation Zrotation
									JOINT RightHandRing2
									{
										OFFSET -6.408615 0.000000 0.000000
										CHANNELS 3 Xrotation Yrotation Zrotation
										JOINT RightHandRing3
										{
											OFFSET -6.150223 0.000000 0.000000
											CHANNELS 3 Xrotation Yrotation Zrotation
											JOINT RightHandRing4
											{
												OFFSET -6.145386 0.000000 0.000000
												CHANNELS 3 Xrotation Yrotation Zrotation
												End Site
												{
													OFFSET 3.671402 4.923981 -0.202372
												}
											}
										}
									}
								}
								JOINT RightHandPinky1
								{
									OFFSET -18.920792 -0.453171 -11.426712
									CHANNELS 3 Xrotation Yrotation Zrotation
									JOINT RightHandPinky2
									{
										OFFSET -4.919586 0.000000 0.000000
										CHANNELS 3 Xrotation Yrotation Zrotation
										JOINT RightHandPinky3
										{
											OFFSET -5.233047 0.000000 0.000000
											CHANNELS 3 Xrotation Yrotation Zrotation
											JOINT RightHandPinky4
											{
												OFFSET -5.571716 0.000000 0.000000
												CHANNELS 3 Xrotation Yrotation Zrotation
												End Site
												{
													OFFSET 3.459808 4.342407 -0.466164
												}
											}
										}
									}
								}
							}
						}
					}
				}
			}
		}
	}
	JOINT LeftUpLeg
	{
		OFFSET 19.899099 -7.885101 -3.429500
		CHANNELS 3 Xrotation Yrotation Zrotation
		JOINT LeftLeg
		{
			OFFSET 1.745560 -36.997807 10.304700
			CHANNELS 3 Xrotation Yrotation Zrotation
			JOINT LeftFoot
			{
				OFFSET -1.745558 -29.803308 -13.615400
				CHANNELS 3 Xrotation Yrotation Zrotation
				JOINT LeftToeBase
				{
					OFFSET 1.181900 -18.539904 15.226099
					CHANNELS 3 Xrotation Yrotation Zrotation
					JOINT LeftToe_End
					{
						OFFSET -0.863701 1.402801 16.534700
						CHANNELS 3 Xrotation Yrotation Zrotation
						End Site
						{
							OFFSET 0.000000 16.616566 0.000000
						}
					}
				}
			}
		}
	}
	JOINT RightUpLeg
	{
		OFFSET -19.899099 -7.885101 -3.429500
		CHANNELS 3 Xrotation Yrotation Zrotation
		JOINT RightLeg
		{
			OFFSET -1.745560 -36.997807 10.304700
			CHANNELS 3 Xrotation Yrotation Zrotation
			JOINT RightFoot
			{
				OFFSET 1.745558 -29.803308 -13.615400
				CHANNELS 3 Xrotation Yrotation Zrotation
				JOINT RightToeBase
				{
					OFFSET -1.181900 -18.539904 15.226099
					CHANNELS 3 Xrotation Yrotation Zrotation
					JOINT RightToe_End
					{
						OFFSET 0.863701 1.402801 16.534700
						CHANNELS 3 Xrotation Yrotation Zrotation
						End Site
						{
							OFFSET 0.000000 16.616566 0.000000
						}
					}
				}
			}
		}
	}
}
MOTION
Frames: 4
Frame Time: 0.033333
-1.151257 26.566292 73.494926 -26.808247 -59.441142 -69.975131 11.343081 4.474411 10.849492 6.884375 3.467546 8.758679 7.147621 3.351373 8.595956 -9.817144 -4.579127 -1.182683 -13.595073 7.258488 27.353924 -0.000000 0.000000 0.000001 0.507202 -16.676995 -9.417656 -14.283368 -12.491010 -62.240242 -96.462885 11.146687 -61.236218 96.024926 -12.296562 0.434023 -6.000717 -6.126806 4.616736 7.548032 12.957893 -3.503957 1.725857 12.236421 17.983374 -0.000000 -0.000002 -0.000002 -19.788392 -16.624218 -32.236160 -12.383330 11.567981 -32.518032 -7.376915 5.270595 -17.498928 0.000003 -0.000000 -0.000001 -15.233542 -11.416196 -21.545174 -9.698432 9.943631 -35.161302 -6.040461 4.685797 -19.308446 0.000000 -0.000001 0.000003 -0.762976 -9.185301 -10.207690 -6.913815 8.355887 -37.527136 -4.547176 4.120253 -21.060943 -0.000000 -0.000001 0.000004 -0.816551 1.398688 9.940155 1.292868 3.861555 -40.438798 0.405313 2.331372 -23.150335 -0.000003 0.000003 -0.000006 -0.961466 10.931611 24.238683 -2.419992 4.375250 32.747496 100.285195 117.208546 -118.042553 -1.742503 -15.165641 0.378926 13.942492 -4.273683 -5.300369 7.113208 -20.767457 -2.619490 -3.463359 -24.899736 -18.660434 0.000001 -0.000002 0.000002 0.357767 -5.832699 5.175853 0.094365 -0.933640 11.539893 0.777634 -2.578457 33.559957 -0.000001 0.000000 0.000001 3.764078 -12.080486 1.143753 5.714320 -4.535875 103.133527 3.160490 -4.410595 71.234973 -0.000003 -0.000001 -0.000004 -12.155614 -12.623883 9.228336 6.566860 -4.248431 114.232312 3.755158 -4.569159 78.819700 -0.000002 -0.000001 -0.000002 -17.635765 -10.496840 3.325443 4.993643 -4.645021 94.147915 3.647376 -4.546605 77.463443 0.000002 -0.000001 0.000000 -24.396549 24.591497 -15.415967 112.411007 3.107048 -4.233198 9.174085 -7.976831 -11.747427 4.562802 -3.693506 -18.043181 0.000000 0.000000 0.000001 -33.881853 -1.542526 -18.000748 63.874263 -12.345376 -10.722396 17.953724 9.452487 -8.819842 -7.408337 0.449393 20.289253 0.000000 -0.000001 -0.000000 
0.927555 21.609726 73.968185 -34.802730 -61.989807 -85.730841 13.720872 6.480411 11.353389 7.701856 4.974975 9.186817 7.929864 4.935991 9.030103 -10.474788 -4.695342 -0.659785 -17.009630 9.361715 25.302552 -0.000000 -0.000003 -0.000000 0.605664 -17.691916 -8.499465 -19.349661 -8.556905 -62.586963 -97.328188 10.602295 -56.660541 81.938672 -25.712391 2.163216 -6.000701 -6.126806 4.616737 7.548060 12.957879 -3.503950 1.725866 12.236421 17.983357 0.000001 0.000004 0.000001 -20.311318 -17.477030 -32.609089 -12.224541 11.308848 -31.957892 -7.099779 5.004804 -16.773674 -0.000003 0.000000 -0.000002 -15.926406 -12.320082 -21.960943 -9.556084 9.669245 -34.401641 -5.793569 4.421973 -18.410331 -0.000000 -0.000003 0.000005 -0.796289 -10.138805 -10.353566 -6.812712 8.099234 -36.594764 -4.359064 3.878449 -20.021865 -0.000000 -0.000002 0.000004 -0.833422 1.366986 10.239982 1.223322 3.773332 -39.344123 0.362566 2.219238 -21.983398 -0.000003 -0.000001 0.000001 -1.360391 14.587226 25.657384 -9.700252 5.745923 29.616592 105.190808 112.474214 -121.977603 -5.121289 -23.611059 -1.238182 13.942489 -4.273683 -5.300368 7.113201 -20.767458 -2.619493 -3.463355 -24.899733 -18.660434 -0.000001 0.000003 -0.000000 0.357768 -5.832705 5.175851 0.094363 -0.933639 11.539886 0.777634 -2.578465 33.559960 -0.000003 -0.000002 0.000003 3.764072 -12.080486 1.143756 5.714315 -4.535871 103.133521 3.160486 -4.410593 71.234973 0.000001 -0.000000 -0.000002 -12.155613 -12.623889 9.228333 6.566860 -4.248427 114.232305 3.755158 -4.569167 78.819707 -0.000002 0.000001 -0.000003 -17.635765 -10.496844 3.325441 4.993644 -4.645025 94.147915 3.647374 -4.546600 77.463457 -0.000000 0.000001 -0.000001 -27.709458 27.456753 -19.464622 108.461464 8.528380 -1.909269 9.672620 -9.486905 -19.019546 -0.104491 0.110900 3.270935 0.000001 0.000001 -0.000000 -40.900037 1.404605 -6.346694 61.539287 -12.136336 -11.514780 28.391783 10.507772 -10.921191 -9.756377 -0.543776 22.743534 0.000001 -0.000000 -0.000002 
3.369949 19.986740 75.518265 -46.266414 -58.052435 -108.503470 17.257474 8.413445 10.009927 10.383795 6.033481 11.318074 10.469749 6.249697 11.136169 -8.608339 -2.898035 0.743319 -18.229158 13.829879 25.011938 -0.000000 -0.000001 0.000000 1.912561 -17.780109 -4.694223 -19.418639 -5.146230 -64.056403 -94.325452 12.127878 -71.896613 76.984107 -32.903371 19.030212 -6.000703 -6.126802 4.616734 7.548045 12.957876 -3.503956 1.725858 12.236414 17.983369 0.000000 0.000001 0.000001 -20.553612 -17.869027 -32.780246 -12.114750 11.132799 -31.575312 -6.878478 4.797328 -16.199981 0.000001 0.000001 0.000001 -16.405054 -12.936652 -22.247625 -9.441085 9.453803 -33.801394 -5.579304 4.199433 -17.641675 0.000001 -0.000001 0.000005 -0.822915 -10.894840 -10.461755 -6.723070 7.881087 -35.797561 -4.185974 3.663611 -19.085703 -0.000001 -0.000002 0.000001 -0.848019 1.339368 10.500840 1.162171 3.692756 -38.358510 0.324627 2.113539 -20.891382 -0.000000 0.000001 0.000001 -1.536580 19.438397 27.458908 -19.780643 14.663212 28.179976 119.998965 117.831773 -138.976673 1.472351 -29.993372 1.592285 13.942494 -4.273681 -5.300370 7.113204 -20.767460 -2.619487 -3.463357 -24.899733 -18.660430 0.000000 0.000000 0.000002 0.357770 -5.832704 5.175854 0.094364 -0.933643 11.539884 0.777634 -2.578459 33.559964 0.000002 -0.000003 -0.000001 3.764079 -12.080493 1.143754 5.714316 -4.535869 103.133521 3.160486 -4.410593 71.234973 -0.000001 -0.000001 -0.000004 -12.155615 -12.623889 9.228333 6.566862 -4.248422 114.232305 3.755160 -4.569158 78.819707 0.000004 -0.000000 -0.000003 -17.635765 -10.496844 3.325444 4.993645 -4.645027 94.147915 3.647367 -4.546602 77.463443 -0.000001 0.000002 0.000008 -32.484192 29.395768 -15.704531 107.734835 11.247460 -0.983653 14.856268 -10.198746 -17.622615 1.243212 0.131783 0.265042 -0.000001 0.000001 -0.000001 -37.511819 -3.222834 7.098266 53.815327 -9.223557 -9.736246 35.371863 9.248128 -14.879222 -9.898802 -0.516678 21.213007 -0.000000 -0.000000 -0.000000 
6.087498 19.850044 77.896736 -47.262969 -52.247966 -123.076744 18.590354 8.937828 9.199764 11.851589 6.212465 12.458041 11.742594 6.608743 12.335524 -0.608360 0.918015 2.428293 -16.386689 17.621488 23.987993 0.000001 0.000001 -0.000001 3.297381 -14.976605 -0.091665 -20.989308 -12.612463 -69.990663 -92.108762 12.694241 -82.232643 93.889932 -32.132051 40.269808 -6.000721 -6.126806 4.616738 7.548045 12.957881 -3.503950 1.725846 12.236420 17.983369 0.000002 0.000001 0.000001 -19.374649 -17.129563 -31.699758 -12.063749 11.051900 -31.398875 -6.726070 4.656756 -15.807448 0.000003 -0.000001 0.000003 -16.627129 -13.221057 -22.380380 -9.361168 9.307180 -33.391070 -5.407840 4.025560 -17.033609 -0.000006 0.000002 0.000005 -0.841064 -11.413252 -10.531777 -6.650006 7.709542 -35.167408 -4.035156 3.482133 -18.284585 0.000005 0.000000 0.000002 -0.859641 1.317124 10.710065 1.110995 3.623012 -37.515555 0.292213 2.017714 -19.907865 0.000001 0.000001 -0.000001 -1.312677 25.040056 28.964336 -25.983732 22.508344 31.069048 138.318502 127.336132 -161.125843 3.153889 -31.298406 3.753226 13.942492 -4.273683 -5.300369 7.113203 -20.767450 -2.619490 -3.463358 -24.899736 -18.660432 0.000000 0.000000 0.000001 0.357769 -5.832708 5.175852 0.094365 -0.933640 11.539885 0.777634 -2.578460 33.559957 -0.000004 -0.000001 -0.000001 3.764080 -12.080492 1.143753 5.714317 -4.535871 103.133521 3.160492 -4.410595 71.234973 0.000000 0.000001 -0.000008 -12.155613 -12.623893 9.228333 6.566855 -4.248431 114.232305 3.755152 -4.569157 78.819700 -0.000004 -0.000004 -0.000004 -17.635760 -10.496841 3.325441 4.993643 -4.645026 94.147915 3.647371 -4.546602 77.463443 0.000002 0.000003 -0.000001 -34.590475 25.809183 -7.868853 104.731109 10.791914 0.299033 23.227896 -13.649245 -18.025346 5.747899 0.077887 -5.383269 -0.000000 -0.000000 0.000002 -30.416806 -13.491259 13.336565 47.785438 -9.596870 -10.002916 33.463463 9.757540 -17.828032 -8.681882 -0.577165 12.538314 -0.000001 -0.000001 0.000001 
